<?xml version="1.0" standalone="no"?>
<!DOCTYPE svg PUBLIC "-//W3C//DTD SVG 20010904//EN"
 "http://www.w3.org/TR/2001/REC-SVG-20010904/DTD/svg10.dtd">
<svg version="1.0" xmlns="http://www.w3.org/2000/svg"
 width="700.000000pt" height="700.000000pt" viewBox="0 0 700.000000 700.000000"
 preserveAspectRatio="xMidYMid meet">
<metadata>
Created by potrace 1.11, written by Peter Selinger 2001-2013
</metadata>
<g transform="translate(0.000000,700.000000) scale(0.100000,-0.100000)"
fill="#000000" stroke="none">
<path d="M2200 6863 c-129 -75 -291 -168 -360 -208 -69 -40 -168 -97 -220
-127 l-95 -56 -1 -196 c0 -108 -3 -198 -5 -200 -2 -2 -71 -43 -154 -90 -82
-47 -161 -93 -175 -101 -14 -8 -116 -67 -226 -131 l-202 -116 0 -275 c0 -173
-4 -279 -10 -285 -6 -6 -176 -106 -379 -223 l-368 -212 0 -1143 0 -1142 215
-125 c118 -68 286 -165 373 -215 86 -50 160 -95 163 -100 3 -5 6 -132 6 -282
l-1 -273 127 -73 c70 -41 213 -123 317 -183 255 -147 278 -160 299 -173 18
-11 19 -26 19 -195 -1 -101 1 -192 4 -202 2 -10 20 -25 39 -35 19 -9 185 -105
369 -212 185 -107 353 -204 373 -215 20 -12 58 -33 83 -48 l46 -27 119 68 c66
38 178 103 249 145 198 114 200 115 379 217 l166 95 -1 2975 0 2975 -451 260
c-248 143 -454 261 -457 262 -3 1 -112 -59 -241 -134z m350 -280 c58 -34 121
-70 140 -80 103 -59 336 -196 345 -203 11 -9 16 -1574 5 -1582 -4 -4 -282
-165 -380 -221 -62 -35 -494 -284 -530 -305 -19 -12 -61 -36 -93 -53 -95 -53
-130 -120 -106 -203 21 -72 108 -119 181 -96 21 6 134 66 251 134 632 366 667
386 676 386 8 0 9 -1846 1 -1853 -3 -3 -104 52 -225 122 l-220 127 -5 400 c-5
367 -6 401 -24 426 -73 109 -248 80 -275 -45 -4 -18 -7 -228 -6 -467 1 -487
-1 -476 73 -526 20 -15 183 -110 362 -213 l325 -187 0 -719 0 -720 -60 -36
c-60 -36 -434 -252 -510 -295 l-40 -22 -150 89 c-82 49 -157 92 -165 96 -16 7
-230 130 -267 154 l-23 14 0 598 c0 671 3 645 -72 695 -50 33 -111 34 -162 3
-69 -43 -70 -49 -73 -401 -1 -173 -2 -316 -2 -318 -1 -1 -22 9 -49 24 -61 34
-396 226 -401 230 -6 5 -3 372 3 383 4 5 48 34 99 63 50 29 101 58 112 65 11
7 26 15 34 19 8 4 64 36 125 72 61 36 131 76 156 90 25 14 52 29 60 35 12 7
91 -35 315 -164 165 -95 302 -174 305 -176 2 -2 5 -259 5 -571 1 -512 3 -570
18 -599 57 -106 215 -106 266 1 21 41 21 57 21 663 l0 620 -23 42 c-13 27 -37
51 -62 65 -22 13 -149 87 -283 164 -134 78 -248 142 -253 142 -5 0 -9 5 -9 10
0 6 -4 10 -9 10 -5 0 -34 14 -65 32 l-56 32 0 386 c0 380 0 386 -22 430 -55
107 -201 112 -263 8 -19 -31 -20 -52 -22 -418 -1 -212 -2 -390 -2 -395 -1 -9
-68 -52 -211 -133 -19 -11 -116 -66 -216 -124 l-180 -104 -120 69 c-65 38
-144 84 -174 102 -30 18 -73 43 -95 55 -141 79 -201 115 -210 125 -6 8 -10
236 -10 641 l1 629 384 222 c212 122 402 234 423 248 124 87 74 274 -75 277
-42 0 -81 -15 -178 -73 -93 -56 -550 -318 -551 -316 -7 13 -2 293 6 302 5 6
116 73 245 147 323 185 346 198 357 198 5 0 97 -51 204 -113 107 -63 217 -126
244 -141 134 -75 155 -90 156 -116 5 -139 0 -243 -12 -254 -8 -7 -153 -93
-324 -191 -171 -98 -328 -190 -349 -204 -72 -47 -74 -58 -75 -449 -1 -419 0
-430 44 -475 75 -77 196 -59 244 36 17 33 19 65 19 314 1 153 1 296 1 318 1
41 1 41 93 95 51 30 109 64 129 75 20 11 102 58 183 105 81 47 166 96 189 109
164 93 161 87 165 340 l3 208 77 44 c42 24 86 49 97 56 11 7 26 15 34 19 109
55 505 296 523 319 l23 29 3 644 c2 567 1 647 -13 676 -37 78 -146 110 -215
64 -19 -13 -44 -41 -55 -63 -20 -39 -21 -57 -20 -604 0 -309 -2 -566 -5 -570
-5 -7 -596 -351 -603 -351 -2 0 -85 47 -183 103 -99 57 -199 115 -224 129 -64
36 -194 111 -199 114 -4 3 -3 386 1 389 17 12 429 245 438 247 10 2 13 -63 14
-303 l1 -305 25 -37 c32 -47 86 -71 143 -65 56 7 91 32 117 84 19 39 20 59 20
626 l0 586 197 113 c109 63 204 117 213 122 8 4 56 31 105 61 50 29 92 52 95
51 3 -1 52 -29 110 -62z"/>
<path d="M4482 6954 c-41 -24 -76 -44 -80 -44 -3 0 -13 -6 -21 -14 -9 -7 -41
-27 -71 -43 -30 -17 -82 -46 -115 -66 -33 -19 -83 -48 -111 -63 -27 -16 -136
-78 -242 -139 l-191 -110 -1 -2976 0 -2975 43 -22 c23 -12 58 -32 77 -43 69
-42 146 -87 190 -111 25 -14 160 -92 300 -173 293 -170 302 -175 309 -171 61
34 279 160 286 166 6 4 35 21 65 37 134 73 545 316 551 325 3 5 6 95 6 199 0
104 1 191 4 193 6 5 237 139 306 177 32 17 65 38 74 45 8 8 19 14 22 14 4 0
44 22 89 49 46 26 124 73 175 102 l91 54 0 272 c0 149 3 276 6 282 4 6 44 31
89 56 45 25 89 50 97 56 8 5 139 81 290 168 l275 159 0 1142 0 1143 -368 212
c-203 117 -373 217 -379 223 -6 6 -10 109 -10 285 l0 274 -240 139 c-132 76
-258 150 -281 163 -157 89 -233 134 -237 141 -3 4 -4 91 -4 193 1 102 -1 190
-5 195 -5 8 -176 111 -341 205 -19 11 -151 86 -292 168 -141 82 -263 151 -270
153 -7 3 -46 -15 -86 -40z m358 -467 c19 -11 60 -33 90 -50 30 -16 62 -35 70
-42 8 -7 20 -14 25 -16 6 -2 40 -21 78 -42 l67 -39 0 -396 0 -397 -28 -18
c-75 -51 -129 -177 -118 -277 17 -150 146 -263 301 -264 123 0 227 68 278 182
54 122 7 288 -104 365 -19 14 -21 26 -22 112 -1 53 0 101 3 106 4 6 407 -216
448 -246 4 -3 4 -387 0 -390 -2 -1 -100 -57 -218 -125 -118 -67 -252 -145
-298 -171 -45 -27 -85 -49 -87 -49 -3 0 -49 25 -103 56 -349 202 -498 288
-502 291 -2 2 -5 161 -5 353 l0 349 42 33 c53 41 102 133 107 203 13 182 -118
326 -299 328 -166 2 -295 -120 -301 -287 -3 -98 22 -161 92 -232 l54 -54 0
-433 0 -434 23 -11 c12 -7 29 -16 37 -22 24 -15 147 -86 433 -251 l267 -154 0
-348 0 -348 -50 -49 c-69 -68 -94 -125 -94 -220 -1 -62 4 -85 27 -132 79 -162
272 -217 431 -124 107 62 165 201 135 323 -17 69 -33 96 -91 154 l-52 52 1
345 c0 284 2 346 14 353 12 7 192 112 510 296 l85 49 75 -44 c40 -24 97 -57
124 -72 43 -24 351 -202 395 -228 12 -7 14 -94 15 -603 0 -327 -1 -601 -3
-610 -2 -8 -31 -32 -65 -51 -34 -20 -145 -84 -247 -143 l-185 -107 -50 18
c-215 77 -437 -103 -404 -327 22 -146 134 -247 284 -257 64 -4 80 -1 131 22
108 50 173 139 186 255 3 19 35 42 173 122 94 54 172 99 175 99 4 0 5 -330 1
-352 0 -4 -34 -25 -73 -48 -40 -22 -98 -55 -129 -73 -30 -17 -121 -70 -202
-117 -81 -47 -158 -92 -171 -100 -30 -18 -19 -23 -266 120 -119 69 -107 62
-250 144 -91 53 -120 74 -121 90 -6 154 -3 241 11 257 8 9 110 71 225 137 116
66 280 160 365 210 l155 89 2 366 1 366 54 53 c70 68 98 136 94 228 -12 265
-333 388 -517 197 -60 -63 -82 -119 -82 -207 -1 -96 26 -158 93 -221 l50 -47
1 -123 c0 -68 0 -194 0 -280 l-1 -156 -127 -74 c-71 -41 -137 -79 -148 -85
-11 -6 -96 -55 -190 -109 -93 -54 -198 -115 -232 -134 l-63 -36 0 -225 0 -225
-380 -219 -380 -220 0 -434 0 -434 -54 -53 c-70 -69 -95 -133 -92 -230 12
-354 519 -396 594 -50 22 104 -10 205 -91 283 l-52 49 0 346 c1 190 3 348 5
350 3 2 140 81 305 176 260 150 302 171 319 161 10 -7 35 -21 55 -32 172 -96
509 -293 519 -303 13 -12 15 -60 13 -331 -1 -58 -2 -61 -33 -77 -18 -9 -46
-25 -63 -35 -26 -15 -155 -89 -303 -174 -26 -14 -49 -23 -52 -18 -3 4 -4 52
-4 105 2 87 4 98 23 112 42 29 74 69 100 127 69 147 -3 332 -153 397 -70 31
-172 31 -241 0 -202 -90 -245 -351 -82 -503 16 -16 33 -28 38 -28 5 0 9 -171
9 -399 l0 -399 -158 -91 c-87 -50 -223 -129 -302 -175 l-145 -84 -45 25 c-106
59 -517 298 -540 314 l-26 17 1 786 0 786 175 101 c96 56 195 113 220 127 25
14 77 44 115 67 95 56 97 56 154 34 187 -71 399 73 402 273 2 127 -58 226
-173 284 -107 54 -253 28 -341 -60 -46 -46 -68 -87 -82 -155 l-11 -54 -223
-129 c-122 -70 -226 -128 -229 -128 -6 0 -9 1844 -3 1858 0 2 22 -9 49 -24 26
-15 58 -34 72 -41 14 -7 93 -53 175 -101 l150 -88 3 -163 3 -162 -48 -44
c-118 -105 -135 -276 -42 -405 33 -45 104 -95 159 -110 56 -16 135 -12 193 10
60 23 135 90 161 144 58 123 30 266 -72 365 l-48 46 1 243 1 244 -42 29 c-24
16 -45 29 -47 29 -3 0 -114 63 -248 141 -133 77 -261 150 -283 163 -23 13 -64
37 -91 54 l-51 31 1 718 0 718 70 42 c39 23 175 102 304 176 l234 134 121 -70
c67 -38 137 -79 156 -90z m-209 -333 c15 -7 36 -32 47 -54 75 -152 -150 -265
-229 -115 -29 54 -21 103 26 149 47 47 91 53 156 20z m765 -799 c84 -54 74
-183 -17 -227 -63 -31 -141 -1 -173 67 -54 113 84 230 190 160z m747 -991 c42
-20 69 -64 71 -114 2 -100 -107 -165 -193 -114 -39 23 -72 89 -65 128 11 61
72 115 131 116 12 0 38 -7 56 -16z m-1486 -628 c59 -64 41 -161 -37 -201 -55
-29 -132 -9 -166 43 -26 40 -24 111 4 147 35 45 61 56 116 52 42 -4 55 -10 83
-41z m726 -117 c53 -29 82 -96 66 -154 -13 -46 -73 -95 -117 -95 -109 0 -170
107 -115 200 31 53 112 77 166 49z m-603 -612 c35 -17 70 -74 70 -115 0 -74
-73 -139 -145 -128 -45 8 -66 21 -93 60 -43 62 -17 148 56 187 35 18 68 17
112 -4z m1343 -215 c49 -44 60 -113 27 -167 -21 -35 -73 -65 -110 -65 -66 0
-130 66 -130 135 0 46 38 101 83 120 35 15 101 3 130 -23z m-722 -933 c99 -69
53 -221 -71 -234 -75 -7 -148 73 -135 148 19 98 125 143 206 86z m-787 -784
c128 -61 86 -248 -55 -248 -131 0 -171 173 -57 243 40 24 69 25 112 5z"/>
</g>
</svg>
