<?xml version="1.0" encoding="UTF-8" standalone="no"?>
<svg
   xmlns:dc="http://purl.org/dc/elements/1.1/"
   xmlns:cc="http://creativecommons.org/ns#"
   xmlns:rdf="http://www.w3.org/1999/02/22-rdf-syntax-ns#"
   xmlns:svg="http://www.w3.org/2000/svg"
   xmlns="http://www.w3.org/2000/svg"
   viewBox="0 0 828.32001 827.84003"
   height="827.84003"
   width="828.32001"
   xml:space="preserve"
   id="svg2"
   version="1.1"><metadata
     id="metadata8"><rdf:RDF><cc:Work
         rdf:about=""><dc:format>image/svg+xml</dc:format><dc:type
           rdf:resource="http://purl.org/dc/dcmitype/StillImage" /></cc:Work></rdf:RDF></metadata><defs
     id="defs6" /><g
     transform="matrix(1.3333333,0,0,-1.3333333,0,827.84)"
     id="g10"><g
       transform="scale(0.1)"
       id="g12"><path
         id="path14"
         style="fill:#797a7b;fill-opacity:1;fill-rule:nonzero;stroke:none"
         d="m 4271.83,2648.98 c -21.26,20.98 -50.45,34.02 -82.77,34.02 -32.31,0 -61.51,-13.04 -82.77,-34.02 -20.98,-21.26 -34.02,-50.46 -34.02,-82.77 0,-32.31 13.04,-61.5 34.02,-82.76 21.26,-21.26 50.46,-34.31 82.77,-34.31 32.32,0 61.51,13.05 82.77,34.31 21.26,21.26 34.3,50.45 34.3,82.76 0,32.31 -13.04,61.51 -34.3,82.77 z m 536.03,538.03 c -20.98,21.26 -50.45,34.29 -82.77,34.29 -32.32,0 -61.51,-13.03 -82.48,-34.29 -21.26,-21.26 -34.31,-50.46 -34.31,-82.78 0,-32.32 13.05,-61.51 34.31,-82.77 20.97,-20.97 50.16,-34.02 82.48,-34.02 32.32,0 61.79,13.05 82.77,34.02 21.26,21.26 34.31,50.45 34.31,82.77 0,32.32 -13.05,61.52 -34.31,82.78 z m 634.69,-716.33 c -21.26,20.98 -50.46,34.31 -82.77,34.31 -32.32,0 -61.52,-13.33 -82.78,-34.31 -20.97,-21.26 -34.29,-50.45 -34.29,-82.77 0,-32.32 13.32,-61.5 34.29,-82.76 21.26,-20.98 50.46,-34.31 82.78,-34.31 32.31,0 61.51,13.33 82.77,34.31 21.26,21.26 34.3,50.44 34.3,82.76 0,32.32 -13.04,61.51 -34.3,82.77 z m 41.09,1379.92 c -21.26,21.26 -50.45,34.3 -82.76,34.3 -32.32,0 -61.51,-13.04 -82.77,-34.3 -20.98,-20.98 -34.02,-50.46 -34.02,-82.49 0,-32.32 13.04,-61.8 34.02,-82.77 21.26,-21.26 50.45,-34.3 82.77,-34.3 32.31,0 61.5,13.04 82.76,34.3 21.26,20.97 34.31,50.45 34.31,82.77 0,32.03 -13.05,61.51 -34.31,82.49 z M 4049.59,731.051 c 32.31,0 61.51,13.039 82.49,34.301 21.26,21.257 34.3,50.457 34.3,82.769 0,32.32 -13.04,61.52 -34.3,82.781 -20.98,20.969 -50.18,34.289 -82.49,34.289 -32.31,0 -61.8,-13.32 -82.77,-34.289 -21.26,-21.261 -34.3,-50.461 -34.3,-82.781 0,-32.312 13.04,-61.512 34.3,-82.769 20.97,-21.262 50.46,-34.301 82.77,-34.301 z m 675.5,707.529 c 32.32,0 61.79,13.33 82.77,34.31 21.26,21.26 34.31,50.45 34.31,82.76 0,32.33 -13.05,61.52 -34.31,82.78 -20.98,21.26 -50.45,34.3 -82.77,34.3 -32.32,0 -61.51,-13.04 -82.48,-34.3 -21.26,-21.26 -34.31,-50.45 -34.31,-82.78 0,-32.31 13.05,-61.5 34.31,-82.76 20.97,-20.98 50.16,-34.31 82.48,-34.31 z m -593.01,1882.5 c -20.98,21.26 -50.18,34.3 -82.49,34.3 -32.31,0 -61.8,-13.04 -82.77,-34.3 -21.26,-21.26 -34.3,-50.46 -34.3,-82.77 0,-32.31 13.04,-61.51 34.3,-82.77 20.97,-20.98 50.46,-34.02 82.77,-34.02 32.31,0 61.51,13.04 82.49,34.02 21.26,21.26 34.3,50.46 34.3,82.77 0,32.31 -13.04,61.51 -34.3,82.77 z m 0,2122.31 c -20.98,20.98 -50.18,34.02 -82.49,34.02 -32.31,0 -61.8,-13.04 -82.77,-34.02 -21.26,-21.26 -34.3,-50.46 -34.3,-82.77 0,-32.32 13.04,-61.51 34.3,-82.77 20.97,-21.26 50.46,-34.3 82.77,-34.3 32.31,0 61.51,13.04 82.49,34.3 21.26,21.26 34.3,50.45 34.3,82.77 0,32.31 -13.04,61.51 -34.3,82.77 z m 675.78,-707.81 c -20.98,21.26 -50.45,34.3 -82.77,34.3 -32.32,0 -61.51,-13.04 -82.48,-34.3 -21.26,-20.98 -34.31,-50.46 -34.31,-82.77 0,-32.03 13.05,-61.52 34.31,-82.49 20.97,-21.26 50.16,-34.3 82.48,-34.3 32.32,0 61.79,13.04 82.77,34.3 21.26,20.97 34.31,50.46 34.31,82.49 0,32.31 -13.05,61.79 -34.31,82.77 z m 53.01,926.94 v -272.7 l 607.47,-350.65 68.31,-39.68 v -77.67 -416.7 l 607.47,-350.65 68.32,-39.4 v -77.67 -1866.05 -77.67 l -68.32,-39.69 -607.47,-350.65 v -416.41 -77.95 l -68.31,-39.4 -607.47,-350.65 V 546.242 468.559 L 4792.56,428.891 4116.78,38.8398 4049.59,0 l -67.46,38.8398 -675.78,390.0512 -68.32,39.668 v 77.683 5116.278 77.66 l 68.32,39.41 675.78,390.33 67.46,38.83 67.19,-38.83 675.78,-390.33 68.31,-39.41 z M 4189.06,2835.79 c 74.55,0 142.01,-30.05 190.77,-78.81 48.75,-49.03 79.09,-116.22 79.09,-190.77 0,-74.55 -30.34,-142.01 -79.09,-190.77 -48.76,-48.75 -116.22,-79.08 -190.77,-79.08 -50.46,0 -97.52,13.88 -138.05,37.98 L 3509.59,2021.68 V 623.91 l 540,-311.82 539.73,311.82 v 698.74 c -20.13,11.62 -38.56,26.08 -54.72,42.23 -49.03,48.76 -79.08,116.22 -79.08,190.77 0,74.56 30.05,142.02 79.08,190.78 48.76,48.75 116.22,79.09 190.49,79.09 74.56,0 142.02,-30.34 190.78,-79.09 48.75,-48.76 79.08,-116.22 79.08,-190.78 0,-74.55 -30.33,-142.01 -79.08,-190.77 -16.16,-16.15 -34.87,-30.61 -55,-42.23 v -191.34 l 404.23,233.29 v 338.74 l -540.01,311.82 -539.72,-311.82 v -622.21 c 20.13,-11.62 38.56,-26.07 54.71,-42.23 49.04,-48.748 79.09,-116.228 79.09,-190.779 0,-74.551 -30.05,-142.012 -79.09,-190.769 -48.75,-48.75 -116.22,-79.082 -190.49,-79.082 -74.55,0 -142.01,30.332 -190.77,79.082 -48.75,48.757 -79.08,116.218 -79.08,190.769 0,74.551 30.33,142.031 79.08,190.779 16.16,16.16 34.87,30.61 54.99,42.23 v 699.88 77.95 l 68.32,39.41 607.19,350.64 v 320.61 77.95 l 68.59,39.4 607.19,350.65 v 497.2 c -20.13,11.9 -38.56,26.08 -55,42.52 -48.75,48.75 -78.8,116.22 -78.8,190.77 0,74.27 30.05,141.73 78.8,190.49 49.04,49.04 116.23,79.08 190.78,79.08 74.55,0 142.01,-30.04 190.77,-79.08 48.75,-48.76 79.08,-116.22 79.08,-190.49 0,-74.55 -30.33,-142.02 -79.08,-190.77 -16.44,-16.44 -34.87,-30.62 -55,-42.52 v -574.87 -77.96 l -68.31,-39.39 -607.47,-350.66 v -242.93 l 540.01,-311.8 540,311.8 v 318.63 l -311.25,-179.73 c 0,-74.55 -30.33,-142.01 -79.08,-190.77 -48.76,-48.75 -116.22,-79.08 -190.77,-79.08 -74.56,0 -142.03,30.33 -190.78,79.08 -48.76,48.76 -78.8,116.22 -78.8,190.77 0,74.56 30.04,142.02 78.8,190.78 48.75,48.75 116.22,79.08 190.78,79.08 49.03,0 94.67,-13.03 134.35,-35.99 l 446.75,257.95 v 440.79 0 639.21 l -540,311.53 -540.01,-311.53 v -622.21 c 20.13,-11.9 38.84,-26.08 55,-42.52 48.75,-48.75 79.08,-116.22 79.08,-190.77 0,-74.27 -30.33,-141.73 -79.08,-190.77 -48.76,-48.75 -116.22,-78.8 -190.78,-78.8 -74.27,0 -141.73,30.05 -190.49,78.8 -49.03,49.04 -79.08,116.5 -79.08,190.77 0,74.55 30.05,142.02 79.08,190.77 16.16,16.44 34.59,30.62 54.72,42.52 v 622.21 l -607.19,350.65 -68.32,39.4 v 77.67 699.88 c -20.12,11.9 -38.83,26.08 -54.99,42.52 -48.75,48.75 -79.08,116.22 -79.08,190.77 0,74.55 30.33,141.73 79.08,190.77 48.76,48.76 116.22,78.81 190.77,78.81 74.27,0 141.74,-30.05 190.49,-78.81 49.04,-49.04 79.09,-116.22 79.09,-190.77 0,-74.55 -30.05,-142.02 -79.09,-190.77 -16.15,-16.44 -34.58,-30.62 -54.71,-42.52 v -622.21 l 539.72,-311.53 540.01,311.53 v 339.02 l -404.23,233.3 V 4886.1 c 20.13,-11.91 38.84,-26.08 55,-42.52 48.75,-48.76 79.08,-116.22 79.08,-190.77 0,-74.27 -30.33,-141.74 -79.08,-190.49 -48.76,-49.04 -116.22,-79.09 -190.78,-79.09 -74.27,0 -141.73,30.05 -190.49,79.09 -49.03,48.75 -79.08,116.22 -79.08,190.49 0,74.55 30.05,142.01 79.08,190.77 16.16,16.44 34.59,30.61 54.72,42.52 v 698.74 l -539.73,311.53 -540,-311.53 V 4307.26 l 607.19,-350.64 68.59,-39.41 v -77.67 -367.93 c 20.13,-11.91 38.56,-26.08 54.99,-42.52 48.76,-48.76 78.81,-116.22 78.81,-190.78 0,-74.27 -30.05,-141.73 -78.81,-190.77 -49.03,-48.76 -116.5,-78.8 -190.77,-78.8 -74.55,0 -142.01,30.04 -190.77,78.8 -48.75,49.04 -79.08,116.5 -79.08,190.77 0,74.56 30.33,142.02 79.08,190.78 16.44,16.44 34.87,30.61 54.99,42.52 v 290.26 l -404.22,233.3 V 2334.05 l 409.89,236.42 c 1.14,72.85 31.18,138.61 78.8,186.51 49.04,48.76 116.51,78.81 190.78,78.81" /><path
         id="path16"
         style="fill:#f2531b;fill-opacity:1;fill-rule:nonzero;stroke:none"
         d="m 1623.13,5294.29 v -725.67 c 0,-75.12 -60.95,-135.78 -135.79,-135.78 -75.11,0 -135.77,60.66 -135.77,135.78 v 508.82 l -404.226,-233.3 v -339.02 l 539.996,-311.53 539.73,311.53 v 984.2 c 0,74.83 60.94,135.77 135.78,135.77 75.11,0 136.06,-60.94 136.06,-135.77 V 4427.45 c 0,-54.71 -32.6,-102.05 -79.37,-123.59 l -596.41,-344.13 v -320.88 c 0,-54.71 -32.6,-102.05 -79.38,-123.31 L 947.344,3171.13 v -537.17 c 0,-74.83 -60.949,-135.78 -135.781,-135.78 -75.118,0 -135.782,60.95 -135.782,135.78 v 614.84 h 0.567 c 0,46.77 24.379,92.13 67.75,117.36 l 607.472,350.64 v 242.93 l -540.007,311.53 -540,-311.53 v -271.56 l 578.55,333.92 c 64.633,37.14 147.403,15.03 184.537,-49.88 37.13,-64.64 14.74,-147.41 -49.888,-184.54 L 271.563,3375.79 V 2249.01 l 540,-311.8 540.007,311.8 v 661.9 c 0,75.11 60.66,135.78 135.77,135.78 74.84,0 135.79,-60.67 135.79,-135.78 v -661.9 l 596.41,-344.4 c 46.77,-21.26 79.37,-68.61 79.37,-123.6 V 730.77 c 0,-75.122 -60.95,-135.778 -136.06,-135.778 -74.84,0 -135.78,60.656 -135.78,135.778 v 972.57 L 1487.34,2015.16 947.344,1703.34 V 1364.6 l 404.226,-233.29 v 5.11 524.4 c 0,75.13 60.66,135.78 135.77,135.78 74.84,0 135.79,-60.65 135.79,-135.78 V 1136.42 961.801 623.91 l 539.72,-311.82 540,311.82 V 1901.2 l -607.19,350.65 c -43.65,24.95 -67.74,70.58 -68.03,117.36 h -0.56 v 735.02 c 0,75.12 60.94,135.78 135.78,135.78 75.11,0 136.06,-60.66 136.06,-135.78 v -657.36 l 403.94,-233.29 v 1661.11 l -794.56,-458.65 c -64.63,-37.13 -147.4,-15.02 -184.54,49.9 -37.13,64.63 -15.02,147.4 49.9,184.53 l 929.2,536.6 v 1397.77 l -540,311.53 -539.72,-311.53 z m -271.56,-4475.36 -607.472,350.65 -68.317,39.4 v 494.36 L 68.3164,2053.99 0,2093.68 v 77.67 1866.05 77.67 l 68.3164,39.68 607.4646,350.37 v 416.7 77.67 l 68.317,39.68 607.472,350.65 v 272.7 77.66 l 68.31,39.41 675.78,390.33 67.19,38.83 67.46,-38.83 675.78,-390.33 68.32,-39.41 V 5662.52 546.242 468.559 L 2906.09,428.891 2230.31,38.8398 2162.85,0 l -67.19,38.8398 -675.78,390.0512 -68.31,39.668 v 77.683 272.688" /></g></g></svg>