<svg xmlns="http://www.w3.org/2000/svg" xmlns:xlink="http://www.w3.org/1999/xlink" viewBox="0 0 307.73 301.32"><defs><style>.cls-1{fill:#373540;}.cls-2{opacity:0.5;fill:url(#linear-gradient);}.cls-3{fill:#231f20;}</style><linearGradient id="linear-gradient" x1="153.87" x2="153.87" y2="282.37" gradientUnits="userSpaceOnUse"><stop offset="0" stop-color="#231f20"/><stop offset="0.03" stop-color="#231f20" stop-opacity="0.93"/><stop offset="0.33" stop-color="#231f20" stop-opacity="0.41"/><stop offset="0.65" stop-color="#231f20" stop-opacity="0.1"/><stop offset="1" stop-color="#231f20" stop-opacity="0"/></linearGradient></defs><title>WhiteBg</title><g id="Layer_2" data-name="Layer 2"><g id="Layer_1-2" data-name="Layer 1"><path class="cls-1" d="M18.1,283.22v3.64H10.89v14.46H7.24V286.86H0v-3.64Z"/><path class="cls-1" d="M36.18,283.22h3.64v18.1H36.18v-7.24H25.37v7.24H21.72v-18.1h3.65v7.22H36.18Z"/><path class="cls-1" d="M47.09,297.68H61.55v3.64H43.44v-18.1H61.55v3.64H47.09v3.58H61.55v3.64H47.09Z"/><path class="cls-1" d="M83.29,297.68H97.75v3.64H79.65v-18.1h3.64Z"/><path class="cls-1" d="M101.37,297.68h7.24V286.86h-7.24v-3.64h18.1v3.64h-7.21v10.82h7.21v3.64h-18.1Z"/><path class="cls-1" d="M123.09,283.22h3.65V294h-3.65ZM126.74,294h3.59v3.65h-3.59Zm3.59,3.65H134v3.64h-3.65ZM134,294h3.59v3.65H134Zm3.59-10.81h3.65V294h-3.65Z"/><path class="cls-1" d="M148.46,297.68h14.46v3.64H144.81v-18.1h18.11v3.64H148.46v3.58h14.46v3.64H148.46Z"/><path class="cls-1" d="M184.66,297.68h14.46v3.64H181v-18.1h18.1v3.64H184.66Z"/><path class="cls-1" d="M220.84,283.22v18.1h-18.1v-18.1Zm-3.64,3.64H206.38v10.82H217.2Z"/><path class="cls-1" d="M242.56,297.7h-3.62v3.62H224.46v-18.1h14.48v3.62h3.62ZM238.8,287H228.23v10.58H238.8Z"/><path class="cls-1" d="M249.83,297.68h14.46v3.64H246.18v-18.1h18.11v3.64H249.83v3.58h14.46v3.64H249.83Z"/><path class="cls-1" d="M282.39,294.08v7.24h-3.65v-7.24h-7.19v7.24h-3.64v-18.1H286v10.86Zm-10.84-3.64h10.84v-3.58H271.55Z"/><path class="cls-1" d="M289.63,297.68h14.46v-3.6H289.63V283.22h18.1v3.64H293.27v3.58h14.46v10.88h-18.1Z"/><path class="cls-2" d="M285.09,123.4l-26.77-.78a106.3,106.3,0,0,0-6.54-22.18L273.93,85.3a13.45,13.45,0,0,0,3.52-18.68l-9.2-13.48a13.42,13.42,0,0,0-18.67-3.51l-22.11,15.1a104.61,104.61,0,0,0-18.29-14.22l9-25.15A13.45,13.45,0,0,0,210,8.18L194.68,2.69a13.43,13.43,0,0,0-17.17,8.13l-9,25.15a105.22,105.22,0,0,0-23.16-.6l-7.53-25.7A13.42,13.42,0,0,0,121.17.55L105.53,5.13a13.44,13.44,0,0,0-9.12,16.68L104,47.57a106.41,106.41,0,0,0-19.12,13L63.64,44.21a13.44,13.44,0,0,0-18.85,2.42l-10,12.92A13.44,13.44,0,0,0,37.26,78.4L58.41,94.74a105.66,105.66,0,0,0-4.51,10.69,106.86,106.86,0,0,0-3.28,11.14l-26.72-.78a13.43,13.43,0,0,0-13.82,13l-.48,16.3a13.45,13.45,0,0,0,13,13.83l26.77.78A106,106,0,0,0,56,181.94L33.8,197.07a13.46,13.46,0,0,0-3.52,18.69l9.2,13.47a13.44,13.44,0,0,0,18.67,3.52l22.11-15.11a104.61,104.61,0,0,0,18.29,14.22l-9,25.15a13.45,13.45,0,0,0,8.13,17.18l15.36,5.49a13.43,13.43,0,0,0,17.17-8.13l9-25.15a105.22,105.22,0,0,0,23.16.6l7.53,25.71a13.44,13.44,0,0,0,16.67,9.12l15.64-4.59a13.44,13.44,0,0,0,9.12-16.68l-7.54-25.76a106.41,106.41,0,0,0,19.12-13l21.19,16.38a13.44,13.44,0,0,0,18.85-2.43l10-12.91A13.45,13.45,0,0,0,270.47,204l-21.15-16.34a102.88,102.88,0,0,0,7.79-21.83l26.72.78a13.43,13.43,0,0,0,13.82-13l.48-16.31A13.45,13.45,0,0,0,285.09,123.4Z"/><path class="cls-3" d="M256.54,128.37l-20.94-.61a83.23,83.23,0,0,0-5.13-17.35l17.34-11.85a10.53,10.53,0,0,0,2.75-14.62l-7.2-10.54a10.51,10.51,0,0,0-14.61-2.75L211.46,82.47a83.08,83.08,0,0,0-14.31-11.13l7-19.67a10.53,10.53,0,0,0-6.37-13.45l-12-4.29a10.5,10.5,0,0,0-13.43,6.36l-7,19.68a81.57,81.57,0,0,0-18.12-.47l-5.89-20.11a10.51,10.51,0,0,0-13-7.14L116,35.84a10.52,10.52,0,0,0-7.13,13L114.81,69a83.47,83.47,0,0,0-15,10.18L83.27,66.41a10.5,10.5,0,0,0-14.74,1.9l-7.8,10.1a10.52,10.52,0,0,0,1.9,14.76L79.18,106A81,81,0,0,0,73.08,123l-20.9-.61a10.52,10.52,0,0,0-10.82,10.21L41,145.39a10.52,10.52,0,0,0,10.2,10.82l20.94.61a83.23,83.23,0,0,0,5.13,17.35L59.92,186a10.53,10.53,0,0,0-2.75,14.62l7.2,10.54A10.51,10.51,0,0,0,79,213.93l17.29-11.82a83.08,83.08,0,0,0,14.31,11.13l-7,19.67a10.53,10.53,0,0,0,6.37,13.45l12,4.29a10.51,10.51,0,0,0,13.44-6.36l7-19.68a81.57,81.57,0,0,0,18.12.47l5.89,20.11a10.51,10.51,0,0,0,13,7.14l12.24-3.59a10.52,10.52,0,0,0,7.13-13.05l-5.9-20.15a83.47,83.47,0,0,0,15-10.18l16.58,12.81a10.51,10.51,0,0,0,14.75-1.9l7.79-10.1a10.52,10.52,0,0,0-1.9-14.76l-16.55-12.78a83,83,0,0,0,3.53-8.37,81.53,81.53,0,0,0,2.57-8.71l20.9.61A10.52,10.52,0,0,0,266.37,152l.37-12.75A10.52,10.52,0,0,0,256.54,128.37ZM191.31,203c-.44,2.35-2,3.27-4.17,3.4s-4.23,0-6.35,0v0q-25.54,0-51.1,0c-3,0-6,.2-8.94.16-3.55,0-4.58-1.18-4.52-4.76.12-8.11,3.4-14.11,11.2-17.39a95,95,0,0,0,10.6-5.6c3.63-2.08,5.78-8.88,4.37-13.26a15.56,15.56,0,0,0-1-2.4c-4.71-9.24-3.66-18.92-2-28.57.78-4.7,7.67-9.18,14.09-9.06,10.56.21,16.19,6.75,15.41,15.43-.5,5.61-.53,11.25-1.08,16.85a21.3,21.3,0,0,1-2,6.23A12.1,12.1,0,0,0,171,179.85c4.51,2.54,9.09,5,13.53,7.61C189.31,190.34,192.33,197.57,191.31,203Zm1.36-35.26a12,12,0,0,1-3.83,3.37,4.51,4.51,0,0,1-6.61-4.54,16.42,16.42,0,0,1,2.62-5.92c4.7-7.33,7.54-15.17,6.92-24-1.52-21.82-21.86-42.38-49.53-34.15-17.16,5.1-24.7,19.29-26.41,32.55-1.22,9.42,1.48,17.84,6.72,25.58.7,1,1.49,2,2.1,3.12,1.46,2.57,1,5-1.1,6.75s-4.41,1.57-6.63-.34a18.79,18.79,0,0,1-2.62-3c-8.84-12.12-11.23-25.41-7.49-39.95,5.07-19.73,20.39-33.8,40.3-36.73,24.72-3.64,48.92,13.26,54,37.82.72,3.44,1,7,1.46,10.47A49.62,49.62,0,0,1,192.67,167.74Zm20.07,7.38c-1.13,1.94-2.35,3.84-3.61,5.71q-1.9,2.56-4,4.94a11.54,11.54,0,0,1-1.14.78c-1.91,1.15-3.8.65-5.45-.71s-2.27-2.94-1.5-4.82a25.5,25.5,0,0,1,2.72-4.9c15.49-22,14.82-50.67-2-70.87C187.14,92.6,173.32,86,156.9,85.06A56.7,56.7,0,0,0,97.28,134.5a55.35,55.35,0,0,0,11.87,43c1.52,1.92,1.43,6.22-.16,7.91-1.44,1.52-6.49.94-7.94-1-16.65-22.05-19.92-45.75-8.35-71.05,10.47-22.91,28.77-35,53-38.5a71,71,0,0,1,7.9-.45,69.14,69.14,0,0,1,45.85,17.22,71.41,71.41,0,0,1,15.47,21.66,66.8,66.8,0,0,1,6.94,30A64.83,64.83,0,0,1,212.74,175.12Z"/></g></g></svg>